<?xml version="1.0" standalone="no"?>
<!DOCTYPE svg PUBLIC "-//W3C//DTD SVG 20010904//EN"
 "http://www.w3.org/TR/2001/REC-SVG-20010904/DTD/svg10.dtd">
<svg version="1.0" xmlns="http://www.w3.org/2000/svg"
 width="522.000000pt" height="391.000000pt" viewBox="0 0 522.000000 391.000000"
 preserveAspectRatio="xMidYMid meet">

<g transform="translate(0.000000,391.000000) scale(0.100000,-0.100000)"
fill="#000000" stroke="none">
<path d="M0 1955 l0 -1955 2610 0 2610 0 0 1955 0 1955 -2610 0 -2610 0 0
-1955z m3638 843 c13 -13 16 -76 4 -95 -6 -9 -97 -13 -347 -15 l-340 -3 -53
-28 c-110 -58 -173 -141 -191 -255 -19 -121 21 -236 111 -317 73 -65 112 -75
363 -90 237 -14 267 -20 357 -78 99 -63 161 -151 193 -272 60 -232 -63 -465
-293 -553 l-67 -26 -424 -4 -423 -4 31 40 c69 85 44 80 447 84 l359 3 63 29
c81 38 163 123 188 198 22 65 22 176 0 236 -35 96 -112 173 -208 208 -30 11
-106 18 -248 24 -213 9 -252 16 -334 57 -62 31 -154 123 -183 183 -52 106 -66
235 -38 343 42 161 144 266 315 324 62 21 81 22 386 23 236 0 323 -3 332 -12z
m-1459 -47 c78 -27 131 -62 193 -128 103 -111 142 -267 103 -416 -19 -75 -44
-122 -98 -188 l-44 -54 76 -46 c141 -87 214 -191 234 -333 12 -83 -7 -196 -45
-274 -45 -94 -147 -180 -264 -224 -56 -21 -77 -22 -427 -26 l-367 -3 2 458 3
458 53 3 52 3 0 -388 c0 -213 4 -394 9 -401 6 -10 70 -12 312 -10 l304 3 67
33 c73 36 123 86 160 161 19 39 23 62 23 146 0 92 -2 104 -29 153 -37 66 -92
116 -165 151 -55 26 -60 26 -313 29 l-258 4 0 58 0 58 183 4 c175 3 184 4 238
31 116 56 193 178 193 302 0 111 -66 234 -156 291 -73 47 -131 54 -415 54
l-263 0 0 61 0 62 288 -5 c262 -5 293 -7 351 -27z"/>
</g>
</svg>
